WALL-E (2008).BRrip.720p.Spanish.Audio Latino AC3-rucucu

SPANISH AUDIO ONLY

Wall-E (2008) Blu Ray rip, 720p., resolución 1280 x 544, AVC x264, contenedor MKV, audio en Español Neutral o Audio Latino, AC3 (Stereo) ,6 canales en caso de poseerlos.
IMDB: 
http://www.imdb.com/title/tt0910970/

Comenten, siembren más de lo que reciban y disfruten la película con sus hijos.


INFORMACIÓN TÉCNICA:
General
Complete name: WALL-E (2008).BRrip.720p.Spanish.Audio Latino AC3-rucucu.mkv
Formato : Matroska
File size: 762 MiB
Duration: 1h 37mn
Overall bit rate: 1 095 Kbps
Encoded date : UTC 2011-05-03 05:22:30
Writing application              : mkvmerge v4.5.0 ('Speed of Light') creado el Feb  1 2011 02:10:32
Writing library                  : libebml v1.2.0 + libmatroska v1.1.0

Video
ID                               : 2
Format                           : AVC
Format/Info                      : Advanced Video Codec
Format profile                   : High@L4.0
Format settings, CABAC           : Yes
Format settings, ReFrames        : 8 frames
Muxing mode                      : Header stripping
Codec ID                         : V_MPEG4/ISO/AVC
Duration                         : 1h 37mn
Bit rate                         : 689 Kbps
Nominal bit rate                 : 746 Kbps
Width                            : 1 280 pixels
Height                           : 544 pixels
Display aspect ratio             : 2.35:1
Frame rate                       : 23.976 fps
Color space                      : YUV
Chroma subsampling               : 4:2:0
Bit depth                        : 8 bits
Scan type                        : Progressive
Bits/(Pixel*Frame)               : 0.041
Stream size                      : 480 MiB (63%)
Writing library                  : x264 core 98 r1649 c54c47d

Audio
ID                               : 1
Format                           : AC-3
Format/Info                      : Audio Coding 3
Mode extension                   : CM (complete main)
Muxing mode                      : Header stripping
Codec ID                         : A_AC3
Duration                         : 1h 37mn
Bit rate mode                    : Constant
Bit rate                         : 384 Kbps
Channel(s)                       : 6 channels
Channel positions                : Front: L C R, Side: L R, LFE
Sampling rate                    : 48.0 KHz
Bit depth                        : 16 bits
Stream size                      : 267 MiB (35%)
